<svg xmlns="http://www.w3.org/2000/svg" width="25" height="25" viewBox="0 0 25 25">
  <path fill="#FFF" d="M25,4.16694444 C25,1.9775 23.0233333,0 20.8333333,0 L4.16666667,0 C1.97666667,0 0,1.9775 0,4.16694444 L0,20.8330556 C0,23.0225 1.97666667,25 4.16694444,25 L12.5,25 L12.5,15.5555556 L9.44444444,15.5555556 L9.44444444,11.3888889 L12.5,11.3888889 L12.5,9.76555556 C12.5,6.96583333 14.6022222,4.44444444 17.1875,4.44444444 L20.5555556,4.44444444 L20.5555556,8.61111111 L17.1875,8.61111111 C16.8188889,8.61111111 16.3888889,9.05861111 16.3888889,9.72888889 L16.3888889,11.3888889 L20.5555556,11.3888889 L20.5555556,15.5555556 L16.3888889,15.5555556 L16.3888889,25 L20.8333333,25 C23.0233333,25 25,23.0225 25,20.8330556 L25,4.16694444 Z"/>
</svg>
