<svg xmlns="http://www.w3.org/2000/svg" width="25" height="25" viewBox="0 0 25 25">
  <g fill="#FFF">
    <path d="M0,5.19439695 L0,19.805603 C0,22.674408 2.32559203,25 5.19439695,25 L19.805603,25 C22.674408,25 25,22.674408 25,19.805603 L25,5.19439695 C25,2.32559203 22.674408,0 19.805603,0 L5.19439695,0 C2.32559203,0 0,2.32559203 0,5.19439695 Z M15.1481629,19.5834351 C8.98193359,21.710968 3.28903199,16.0180664 5.41656492,9.85183715 C6.13342285,7.77359008 7.7734375,6.13342285 9.85168457,5.41656492 C16.0180664,3.28903199 21.710968,8.98193359 19.5834351,15.1483154 C18.8665771,17.2265625 17.2265625,18.8665771 15.1481629,19.5834351 Z M21.1747742,4.9404907 C21.0766602,5.45425414 20.6515503,5.75317383 20.211792,5.75317383 C19.9441528,5.75317383 19.6713257,5.6427002 19.4624329,5.40298461 C19.4439697,5.38177492 19.4267273,5.3590393 19.4114685,5.3353882 C19.1958618,5.00579836 19.189148,4.61425781 19.372406,4.29672242 C19.5021057,4.07196047 19.7114563,3.91143797 19.9621582,3.8442993 C20.2125549,3.77685547 20.4743957,3.81149293 20.6988525,3.94134523 C21.0165405,4.1244507 21.2063598,4.46701051 21.1846924,4.85977172 C21.1831665,4.88662719 21.1799621,4.91394043 21.1747742,4.9404907 Z"/>
    <path d="M12.5,6.4266968 C9.15100098,6.4266968 6.4266968,9.15100098 6.4266968,12.5 C6.4266968,15.848999 9.15100098,18.5733032 12.5,18.5733032 C15.848999,18.5733032 18.5733032,15.848999 18.5733032,12.5 C18.5733032,9.15100098 15.848999,6.4266968 12.5,6.4266968 Z"/>
  </g>
</svg>
