<svg width="0" height="0" class="hidden">
  <symbol xmlns="http://www.w3.org/2000/svg" viewBox="0 0 284 162" id="video-frame">
    <path fill="none" stroke="#FFF" stroke-width="2" d="M1 1h282v151l-8 8.5H1z"></path>
  </symbol>
  <symbol xmlns="http://www.w3.org/2000/svg" viewBox="0 0 36 25" id="vid-play">
    <g fill="none" opacity=".801">
        <path fill="#FFF" d="M33.9809392,2.19399171 C32.704558,0.676726519 30.3480663,0.0578729282 25.8476519,0.0578729282 L9.51111878,0.0578729282 C4.90773481,0.0578729282 2.51125691,0.716712707 1.23970994,2.3320442 C0,3.90690608 0,6.22748619 0,9.43929558 L0,15.5608425 C0,21.783011 1.47092541,24.9421961 9.51111878,24.9421961 L25.847721,24.9421961 C29.7504834,24.9421961 31.9130525,24.3960635 33.3121547,23.0571133 C34.7469613,21.684047 35.359116,19.4421271 35.359116,15.5608425 L35.359116,9.43929558 C35.359116,6.05220994 35.2631906,3.7179558 33.9809392,2.19399171 Z M22.7006906,13.3451657 L15.2823204,17.2222376 C15.1165055,17.3089088 14.9350829,17.3519337 14.7540055,17.3519337 C14.548895,17.3519337 14.344268,17.2967541 14.1630525,17.1870166 C13.8217541,16.9802486 13.6133978,16.6102901 13.6133978,16.211326 L13.6133978,8.4820442 C13.6133978,8.08377072 13.8212017,7.71415746 14.1618094,7.50725138 C14.5024862,7.3003453 14.9262431,7.28618785 15.2796961,7.46982044 L22.6980663,11.3218923 C23.0754834,11.5178177 23.3125,11.9074586 23.3130525,12.3325967 C23.3135359,12.7581492 23.0775552,13.1483425 22.7006906,13.3451657 Z"/>
        <path fill="#4A4A4A" d="M22.7006906,13.3451657 L15.2823204,17.2222376 C15.1165055,17.3089088 14.9350829,17.3519337 14.7540055,17.3519337 C14.548895,17.3519337 14.344268,17.2967541 14.1630525,17.1870166 C13.8217541,16.9802486 13.6133978,16.6102901 13.6133978,16.211326 L13.6133978,8.4820442 C13.6133978,8.08377072 13.8212017,7.71415746 14.1618094,7.50725138 C14.5024862,7.3003453 14.9262431,7.28618785 15.2796961,7.46982044 L22.6980663,11.3218923 C23.0754834,11.5178177 23.3125,11.9074586 23.3130525,12.3325967 C23.3135359,12.7581492 23.0775552,13.1483425 22.7006906,13.3451657 Z"/>
    </g>
</symbol>

<symbol xmlns="http://www.w3.org/2000/svg" viewBox="0 0 681 386" id="video-frame-large">
    <path fill="none" stroke="#FFF" stroke-width="2" d="M1 1h678.68v363.407l-19.253 20.456H1z"></path>
</symbol>

<symbol xmlns="http://www.w3.org/2000/svg" viewBox="0 0 25 25" id="yt">
    <g fill="#FFF">
      <path d="M20.293 0H4.683A4.683 4.683 0 0 0 0 4.683v15.61a4.683 4.683 0 0 0 4.683 4.683h15.61a4.683 4.683 0 0 0 4.683-4.683V4.683A4.683 4.683 0 0 0 20.293 0zm-.132 15.284c-.085 1.04-.875 2.366-1.978 2.558-3.536.275-7.726.24-11.388 0-1.142-.143-1.893-1.52-1.978-2.558-.178-2.182-.178-3.425 0-5.607.085-1.038.854-2.407 1.978-2.532 3.62-.305 7.833-.24 11.388 0 1.27.047 1.893 1.356 1.978 2.396.174 2.182.174 3.56 0 5.743z"></path>
      <path d="M10.927 15.61l4.683-3.122-4.683-3.122z"></path>
    </g>
  </symbol>
  <symbol xmlns="http://www.w3.org/2000/svg" viewBox="0 0 25 25" id="ig">
    <g fill="#FFF">
      <path d="M0 5.194v14.612A5.194 5.194 0 0 0 5.194 25h14.612A5.194 5.194 0 0 0 25 19.806V5.194A5.194 5.194 0 0 0 19.806 0H5.194A5.194 5.194 0 0 0 0 5.194zm15.148 14.39C8.982 21.71 3.29 16.017 5.417 9.851a7.172 7.172 0 0 1 4.435-4.435c6.166-2.128 11.859 3.565 9.731 9.731a7.172 7.172 0 0 1-4.435 4.435zM21.175 4.94a.977.977 0 0 1-1.764.395.979.979 0 0 1-.039-1.038.964.964 0 0 1 .59-.453.962.962 0 0 1 .737.097.978.978 0 0 1 .476 1z"></path>
      <path d="M12.5 6.427A6.08 6.08 0 0 0 6.427 12.5a6.08 6.08 0 0 0 6.073 6.073 6.08 6.08 0 0 0 6.073-6.073A6.08 6.08 0 0 0 12.5 6.427z"></path>
    </g>
  </symbol>
  <symbol xmlns="http://www.w3.org/2000/svg" viewBox="0 0 25 25" id="tw">
    <path fill="#FFF" d="M20.287 0H4.682A4.681 4.681 0 0 0 0 4.682v15.605a4.681 4.681 0 0 0 4.682 4.682h15.605a4.681 4.681 0 0 0 4.682-4.682V4.682A4.681 4.681 0 0 0 20.287 0zm-1.592 9.682l.01.398c0 4.063-3.092 8.745-8.746 8.745a8.699 8.699 0 0 1-4.71-1.381 6.168 6.168 0 0 0 4.55-1.272 3.079 3.079 0 0 1-2.872-2.135c.19.034.38.053.58.053.28 0 .552-.036.81-.106a3.077 3.077 0 0 1-2.467-3.013v-.04a3.07 3.07 0 0 0 1.392.386 3.073 3.073 0 0 1-.951-4.103 8.723 8.723 0 0 0 6.335 3.212 3.074 3.074 0 0 1 5.239-2.803 6.224 6.224 0 0 0 1.952-.746 3.082 3.082 0 0 1-1.351 1.701 6.162 6.162 0 0 0 1.765-.483 6.213 6.213 0 0 1-1.536 1.587z"></path>
  </symbol>
  <symbol xmlns="http://www.w3.org/2000/svg" viewBox="0 0 25 25" id="fb">
    <path fill="#FFF" d="M25 4.167C25 1.977 23.023 0 20.833 0H4.167C1.977 0 0 1.978 0 4.167v16.666C0 23.023 1.977 25 4.167 25H12.5v-9.444H9.444v-4.167H12.5V9.766c0-2.8 2.102-5.322 4.688-5.322h3.368v4.167h-3.369c-.368 0-.798.448-.798 1.118v1.66h4.167v4.167h-4.167V25h4.444C23.023 25 25 23.023 25 20.833V4.167z"></path>
  </symbol>
   <symbol xmlns="http://www.w3.org/2000/svg" viewBox="0 0 16 17" id="plus">
    <path fill="#EC2427" d="M9.551 6.519V.07H6.48v6.449H.031V9.59H6.48v6.449h3.071V9.59H16V6.519z"></path>
  </symbol>
</svg>
