<svg xmlns="http://www.w3.org/2000/svg" width="36" height="25" viewBox="0 0 36 25">
  <g fill="none" opacity=".801">
    <path fill="#FFF" d="M33.9809392,2.19399171 C32.704558,0.676726519 30.3480663,0.0578729282 25.8476519,0.0578729282 L9.51111878,0.0578729282 C4.90773481,0.0578729282 2.51125691,0.716712707 1.23970994,2.3320442 C0,3.90690608 0,6.22748619 0,9.43929558 L0,15.5608425 C0,21.783011 1.47092541,24.9421961 9.51111878,24.9421961 L25.847721,24.9421961 C29.7504834,24.9421961 31.9130525,24.3960635 33.3121547,23.0571133 C34.7469613,21.684047 35.359116,19.4421271 35.359116,15.5608425 L35.359116,9.43929558 C35.359116,6.05220994 35.2631906,3.7179558 33.9809392,2.19399171 Z M22.7006906,13.3451657 L15.2823204,17.2222376 C15.1165055,17.3089088 14.9350829,17.3519337 14.7540055,17.3519337 C14.548895,17.3519337 14.344268,17.2967541 14.1630525,17.1870166 C13.8217541,16.9802486 13.6133978,16.6102901 13.6133978,16.211326 L13.6133978,8.4820442 C13.6133978,8.08377072 13.8212017,7.71415746 14.1618094,7.50725138 C14.5024862,7.3003453 14.9262431,7.28618785 15.2796961,7.46982044 L22.6980663,11.3218923 C23.0754834,11.5178177 23.3125,11.9074586 23.3130525,12.3325967 C23.3135359,12.7581492 23.0775552,13.1483425 22.7006906,13.3451657 Z"/>
    <path fill="#4A4A4A" d="M22.7006906,13.3451657 L15.2823204,17.2222376 C15.1165055,17.3089088 14.9350829,17.3519337 14.7540055,17.3519337 C14.548895,17.3519337 14.344268,17.2967541 14.1630525,17.1870166 C13.8217541,16.9802486 13.6133978,16.6102901 13.6133978,16.211326 L13.6133978,8.4820442 C13.6133978,8.08377072 13.8212017,7.71415746 14.1618094,7.50725138 C14.5024862,7.3003453 14.9262431,7.28618785 15.2796961,7.46982044 L22.6980663,11.3218923 C23.0754834,11.5178177 23.3125,11.9074586 23.3130525,12.3325967 C23.3135359,12.7581492 23.0775552,13.1483425 22.7006906,13.3451657 Z"/>
  </g>
</svg>
