<svg xmlns="http://www.w3.org/2000/svg" width="25" height="25" viewBox="0 0 25 25">
  <g fill="#FFF">
    <path d="M20.2933202,0 L4.68305501,0 C2.09646365,0 0,2.09646365 0,4.68305501 L0,20.2933202 C0,22.8799607 2.09646365,24.9763752 4.68305501,24.9763752 L20.2933202,24.9763752 C22.8799607,24.9763752 24.9763752,22.8799116 24.9763752,20.2933202 L24.9763752,4.68305501 C24.9764244,2.09646365 22.8799607,0 20.2933202,0 Z M20.1606582,15.2839882 C20.0763752,16.3236248 19.2864931,17.6504912 18.1828585,17.8424853 C14.6471513,18.1172397 10.4573183,18.0829077 6.79518664,17.8424853 C5.65250491,17.6988703 4.90166994,16.322053 4.81738703,15.2839882 C4.63944008,13.1016699 4.63944008,11.8590864 4.81738703,9.67676817 C4.90166994,8.63870334 5.67126719,7.26964637 6.79518664,7.14479371 C10.4152259,6.84037328 14.6284381,6.90594303 18.1828585,7.14479371 C19.4535363,7.19160118 20.0763752,8.50132613 20.1606582,9.54096267 C20.3354617,11.7232809 20.3354617,13.1016699 20.1606582,15.2839882 Z"/>
    <polygon points="10.927 15.61 15.61 12.488 10.927 9.366"/>
  </g>
</svg>
