<?xml version="1.0" encoding="UTF-8"?>
<svg width="64px" height="64px" viewBox="0 0 64 64" version="1.1" xmlns="http://www.w3.org/2000/svg" xmlns:xlink="http://www.w3.org/1999/xlink">
    <!-- Generator: Sketch 53.2 (72643) - https://sketchapp.com -->
    <title>ico/completeprofile</title>
    <desc>Created with Sketch.</desc>
    <g id="Points" stroke="none" stroke-width="1" fill="none" fill-rule="evenodd">
        <g id="05a_Point" transform="translate(-230.000000, -1353.000000)" fill="#000000" fill-rule="nonzero">
            <g id="Content" transform="translate(0.000000, 80.000000)">
                <g id="how-to" transform="translate(230.000000, 1123.000000)">
                    <g id="Group-2" transform="translate(0.000000, 150.000000)">
                        <g id="ico/completeprofile">
                            <polygon id="Path" points="60.272625 37.4545 42.906625 56.789875 33.10625 47.461 29.658875 51.082625 43.18725 63.960125 63.9925 40.7955"></polygon>
                            <path d="M42.47425,33.74575 C47.3225,30.406875 50.5075,24.81875 50.5075,18.5 C50.5075,8.299125 42.208375,0 32.0075,0 C21.806625,0 13.5075,8.299125 13.5075,18.5 C13.5075,24.8185 16.692375,30.406375 21.540125,33.745375 C17.013875,35.307125 12.865375,37.88725 9.38,41.372625 C3.336125,47.416625 0.0075,55.4525 0.0075,64 L5.0075,64 C5.0075,49.112125 17.119625,37 32.0075,37 C38.318875,37 44.12925,39.17925 48.731625,42.8215 L52.088625,39.083875 C49.1915,36.739875 45.943875,34.94375 42.47425,33.74575 Z M32.0075,32 C24.563625,32 18.5075,25.943875 18.5075,18.5 C18.5075,11.056125 24.563625,5 32.0075,5 C39.451375,5 45.5075,11.056125 45.5075,18.5 C45.5075,25.943875 39.451375,32 32.0075,32 Z" id="Shape"></path>
                        </g>
                    </g>
                </g>
            </g>
        </g>
    </g>
</svg>