<?xml version="1.0" encoding="UTF-8"?>
<svg width="64px" height="64px" viewBox="0 0 64 64" version="1.1" xmlns="http://www.w3.org/2000/svg" xmlns:xlink="http://www.w3.org/1999/xlink">
    <!-- Generator: Sketch 53.2 (72643) - https://sketchapp.com -->
    <title>ico/quiz</title>
    <desc>Created with Sketch.</desc>
    <g id="Points" stroke="none" stroke-width="1" fill="none" fill-rule="evenodd">
        <g id="05a_Point" transform="translate(-230.000000, -1353.000000)" fill="#000000" fill-rule="nonzero">
            <g id="Content" transform="translate(0.000000, 80.000000)">
                <g id="how-to" transform="translate(230.000000, 1123.000000)">
                    <g id="Group-2" transform="translate(0.000000, 150.000000)">
                        <g id="ico/quiz">
                            <path d="M56.1176452,56.8931306 C61.2108226,53.6694269 63.8879688,48.49154 63.8879688,41.7977388 C63.8879688,37.8087797 62.9327096,34.3409279 61.0485146,31.4902456 C59.5151345,29.170152 57.3949006,27.2958129 54.7350955,25.9050292 C54.8471267,24.8988694 54.9055127,23.8621442 54.9055127,22.7944795 C54.9055127,18.909193 54.1604678,15.4155166 52.6912125,12.4098869 C51.2882027,9.53974269 49.2266043,7.10911501 46.5636803,5.18499805 C41.8688499,1.79287329 35.2626277,0 27.4591189,0 C19.6556101,0 13.0493879,1.79287329 8.3545575,5.18499805 C5.69163353,7.10911501 3.63003509,9.53974269 2.22702534,12.4098869 C0.757769981,15.4153918 0.0127251462,18.909193 0.0127251462,22.7944795 C0.0127251462,31.1074932 3.40198051,37.494269 9.84302534,41.3879142 C8.97734113,44.3153216 7.90955166,46.0672749 7.90106823,46.0811228 L5.51210916,49.9025341 L10.0235478,49.9025341 C10.0385185,49.9026589 10.0539883,49.9026589 10.0704561,49.9026589 C11.1492242,49.9026589 15.4504483,49.7011774 19.5319766,46.7478207 C20.5386355,50.9452476 22.9002729,54.3497232 26.4726706,56.7031267 C30.2502924,59.1916413 35.4231891,60.5070721 41.4318285,60.5070721 C43.136499,60.5070721 44.6847251,60.4204912 46.1262846,60.243462 C49.7638051,63.6771306 54.0708928,63.8969513 55.3926862,63.8756179 L55.3971774,63.8754932 L60.1082261,63.900694 L57.4743704,60.0122885 C57.4152359,59.917848 56.7287018,58.7995322 56.1176452,56.8931306 Z M14.2358207,44.0368655 C14.5736608,43.0471735 14.9025185,41.9193762 15.1788538,40.6715634 L15.6022768,38.7602963 L13.8467057,37.8943626 C7.97854191,34.9998908 5.00310331,29.9194386 5.00310331,22.7944795 C5.00297856,7.30323587 19.0723743,4.99025341 27.4591189,4.99025341 C35.8458635,4.99025341 49.9152593,7.30323587 49.9152593,22.7944795 C49.9152593,38.2396881 35.8458635,40.545809 27.4591189,40.545809 C24.8925068,40.545809 22.7367173,40.3916101 20.869115,40.0744795 L19.4798285,39.8385653 L18.560499,40.9063548 C17.1915478,42.4962495 15.6418246,43.4571228 14.2358207,44.0368655 Z M52.1012398,53.4301442 L50.3456686,54.296078 L50.7690916,56.207345 C50.8939727,56.7713684 51.0314542,57.3024561 51.1757973,57.7993606 C50.412538,57.3734425 49.6355556,56.7822222 48.9290604,55.961575 L48.009731,54.8937856 L46.6204444,55.1296998 C45.0866901,55.390191 43.3895049,55.5168187 41.4319532,55.5168187 C36.4020273,55.5168187 32.1784016,54.4859571 29.2180585,52.5357661 C26.6780195,50.8625341 25.0478285,48.4870487 24.3531852,45.4562183 C25.3321481,45.509115 26.3640078,45.5359376 27.4592437,45.5359376 C35.2677427,45.5359376 41.8724678,43.7530448 46.5599376,40.3801326 C49.2243587,38.4627524 51.2870799,36.0377388 52.6905887,33.17246 C53.0301754,32.4791891 53.3292164,31.7587212 53.5912047,31.0143002 C57.1145731,33.3274074 58.8979649,36.9439688 58.8979649,41.7977388 C58.8977154,47.2917583 56.6110565,51.2054893 52.1012398,53.4301442 Z M24.8392359,16.8413567 L19.8489825,16.8413567 C19.8489825,14.7233684 20.7585809,12.6944561 22.3444834,11.274729 C23.9366238,9.84951267 26.0710799,9.16709552 28.1990487,9.40375828 C31.634963,9.78501365 34.401809,12.5454971 34.7780741,15.9675634 C35.121653,19.0920858 33.3275322,21.2956569 31.9482261,22.6813255 C31.610386,23.0207875 31.3007407,23.3160858 31.0273996,23.5767018 C29.8297388,24.7187212 29.8297388,24.763883 29.8297388,25.3154308 L29.8297388,26.9372632 L24.8394854,26.9372632 L24.8394854,25.3154308 C24.8394854,22.5821442 26.234386,21.2519922 27.5833762,19.9653801 C27.8468616,19.7141209 28.1193294,19.4542534 28.411384,19.1609513 C29.7583782,17.8077193 29.8781442,17.0631735 29.8176374,16.5129981 C29.6945029,15.3933099 28.7822846,14.4892008 27.6486238,14.3635712 C26.9181754,14.2823548 26.2165458,14.5061676 25.6727329,14.9928421 C25.1352827,15.4740273 24.8392359,16.1306199 24.8392359,16.8413567 Z M24.8392359,30.5655517 L29.8294893,30.5655517 L29.8294893,35.5558051 L24.8392359,35.5558051 L24.8392359,30.5655517 Z" id="Shape"></path>
                        </g>
                    </g>
                </g>
            </g>
        </g>
    </g>
</svg>