<?xml version="1.0" encoding="UTF-8"?>
<svg width="64px" height="64px" viewBox="0 0 64 64" version="1.1" xmlns="http://www.w3.org/2000/svg" xmlns:xlink="http://www.w3.org/1999/xlink">
    <!-- Generator: Sketch 53.2 (72643) - https://sketchapp.com -->
    <title>ico/referalcode</title>
    <desc>Created with Sketch.</desc>
    <g id="Points" stroke="none" stroke-width="1" fill="none" fill-rule="evenodd">
        <g id="05a_Point" transform="translate(-230.000000, -1353.000000)" fill="#000000" fill-rule="nonzero">
            <g id="Content" transform="translate(0.000000, 80.000000)">
                <g id="how-to" transform="translate(230.000000, 1123.000000)">
                    <g id="Group-2" transform="translate(0.000000, 150.000000)">
                        <g id="ico/referalcode">
                            <path d="M61.8583985,32.168457 L61.7875976,32.0976562 L46.1015625,18.741211 L46.0874024,14.5961914 L36.743164,14.628418 L30.6533203,20.7177735 C29.6987305,21.6723633 28.131836,21.6879883 27.1601563,20.7524414 C26.694336,20.303711 26.4335938,19.6855469 26.4272461,19.0112305 C26.4204101,18.3032226 26.7001953,17.6137695 27.194336,17.1196289 L32.1601563,11.8217774 C36.1538086,7.55957025 41.7949219,5.11474612 47.6362305,5.11474612 L63.9355469,5.11474612 L63.9355469,0.12451175 L47.6362305,0.12451175 C41.8203125,0.12451175 36.1660156,2.08789062 31.6074219,5.605957 C27.0014649,1.977539 21.3305664,0 15.4125976,0 L0.0625,0 L0.0625,4.99023438 L15.4125976,4.99023438 C19.9433594,4.99023438 24.2954101,6.42138675 27.9086914,9.0615235 L23.6342774,13.6230469 C22.2182618,15.0566406 21.4179688,17.0351562 21.4375,19.059082 C21.4570313,21.0839844 22.2602539,22.9624024 23.699707,24.3481445 C25.1186524,25.7138672 26.991211,26.4555664 28.956543,26.4384765 C30.9301758,26.4208985 32.7861328,25.6425781 34.1816406,24.246582 L38.8168945,19.6113281 L39.4238281,19.6088867 L58.3857423,35.7548828 C59.15625,36.5854493 59.137207,37.8881836 58.3295899,38.696289 C57.9326173,39.0932618 57.4003906,39.3115235 56.8300781,39.3115235 C56.2597656,39.3115235 55.727539,39.0932617 55.3305664,38.696289 L54.8183594,38.184082 L51.290039,41.7124024 L51.8017578,42.2246094 C52.0415039,42.4638672 52.2939453,42.6826172 52.5571289,42.8808594 L52.5073243,42.9301757 C53.3344726,43.7573242 53.3344726,45.102539 52.5073243,45.9296875 C51.680664,46.7563476 50.334961,46.7563476 49.5083008,45.9296875 L48.6616211,45.0893555 L45.1333008,48.6176758 L45.7070313,49.1914063 C46.1367188,49.6230469 46.3959961,50.2368164 46.4179688,50.8764649 C46.4296875,51.225586 46.3764649,51.8847656 45.8823243,52.3779298 C45.1015625,53.1591798 43.7495118,53.078125 42.8696289,52.1982423 L42.7998048,52.1279298 L42.3500976,51.7446289 L38.9667969,55.4077149 C39.3833008,55.8237305 39.616211,56.3686524 39.6225586,56.9418945 C39.6289063,57.496582 39.4189453,58.015625 39.0317383,58.402832 C38.2045899,59.2299805 36.8422851,59.2133789 35.9887695,58.359375 L35.633789,58.0073243 C36.6533203,55.4091798 36.1157226,52.3364258 34.0195313,50.2397461 C33.0810548,49.3012695 31.9375,48.6445313 30.6982423,48.3149414 C31.0058594,46.1713868 30.336914,43.9135743 28.6914063,42.2680664 C27.4584961,41.0351563 25.8813476,40.3520508 24.2666015,40.2158203 C24.1445313,38.6103515 23.4584961,37.0351563 22.2045899,35.78125 C20.9643555,34.5410156 19.3759765,33.8574219 17.7509765,33.7265625 C17.6206055,32.1015625 16.9370118,30.5131836 15.6967774,29.2729493 C12.9296875,26.506836 8.43164063,26.5004883 5.6572265,29.2558594 L2.1708985,32.6220703 L2.1396485,32.652832 C0.800293,33.9921875 0.0625,35.777832 0.0625,37.680664 C0.0625,39.5839844 0.800293,41.3696289 2.1396485,42.7089844 C3.199707,43.769043 4.51416013,44.4223633 5.88818363,44.671875 C5.8237305,46.5727539 6.51367188,48.4946289 7.961914,49.9423828 C9.25292975,51.2338868 10.9765625,51.9399414 12.8286133,51.9399414 C12.8637695,51.9399414 12.8989258,51.9394531 12.9345703,51.9389649 C13.1362305,53.421875 13.8027344,54.8500976 14.9370118,55.984375 C16.3168945,57.3642578 18.1303711,58.0532226 19.949707,58.0527344 C20.102539,58.0527344 20.2553711,58.0463868 20.4082031,58.0366211 C20.6723633,59.4887695 21.3652344,60.8242188 22.425293,61.8842774 C23.8359375,63.2949219 25.6884765,64 27.5415039,64 C29.3510743,63.9995118 31.159668,63.3251953 32.5571289,61.9799805 C33.9487305,63.324707 35.75,64 37.5478515,63.9995117 C39.3666993,63.9995117 41.1811524,63.3110351 42.5605469,61.9311524 C43.6640625,60.8276367 44.3530274,59.4228515 44.5527344,57.8999024 C46.3286133,57.8969726 48.0830078,57.2348632 49.4111328,55.90625 C50.578125,54.7397461 51.2651368,53.2075195 51.3891601,51.5273438 C53.0810548,51.4370118 54.746582,50.7475586 56.0361328,49.4580078 C57.4838868,48.0102539 58.175293,46.0888672 58.1113281,44.1884765 C59.4848633,43.9389649 60.7988281,43.2841797 61.8583985,42.2246094 C64.6308594,39.4521485 64.6308594,34.940918 61.8583985,32.168457 L61.8583985,32.168457 Z M5.05273438,37.680664 C5.05273438,37.1166992 5.2666015,36.5898437 5.6552735,36.1938476 L9.13769525,32.8325195 L9.16894525,32.8017577 C9.565918,32.4042969 10.0986328,32.1860351 10.668457,32.1860351 C11.2387695,32.1860351 11.7714844,32.4042969 12.168457,32.8017577 C12.5649414,33.1987305 12.7836914,33.730957 12.7836914,34.3012695 C12.7836914,34.7749024 12.6308594,35.222168 12.3520508,35.5878906 C12.2866211,35.6479492 12.2216797,35.7084961 12.1577149,35.7714844 L9.59863275,38.2807617 L8.6987305,39.1499024 L8.6674805,39.180664 C8.27050775,39.5776367 7.737793,39.7963867 7.1674805,39.7963867 C6.59765625,39.7963867 6.06494138,39.5776367 5.66796875,39.180664 C5.27099612,38.7836914 5.05273438,38.2509765 5.05273438,37.680664 L5.05273438,37.680664 Z M11.4902344,46.4140625 C10.6655274,45.5893555 10.6635742,44.2490235 11.4833985,43.421875 L13.0810547,41.8549805 L15.6655274,39.3598632 L15.6967774,39.3295899 C15.7636719,39.2626952 15.8271485,39.1938476 15.8911132,39.125 C16.7216797,38.4902344 17.9169922,38.550293 18.6762695,39.3095702 C19.4975586,40.1313476 19.5024414,41.3203125 18.6889649,42.1411132 L14.4311524,46.3154297 C13.5581055,47.1210937 12.243164,47.1669922 11.4902344,46.4140625 Z M18.465332,52.4560547 C17.6396485,51.6298827 17.6552735,50.2705077 18.4995117,49.4228515 L22.1547851,45.805664 L22.1640625,45.7963867 C22.5605469,45.399414 23.0932617,45.1811524 23.6635742,45.1811524 C24.2333985,45.1811524 24.7661132,45.399414 25.163086,45.7963867 C25.9887695,46.6220702 25.9897461,47.9648438 25.1669922,48.7919922 L21.5112305,52.409668 L21.5019531,52.418457 C20.6547851,53.2661132 19.2924805,53.2827149 18.465332,52.4560547 L18.465332,52.4560547 Z M25.9536133,58.3554687 C25.5234375,57.925293 25.2832031,57.3486327 25.2768555,56.7314452 C25.2705078,56.1269531 25.493164,55.5683594 25.9038086,55.1582031 L27.4008789,53.6611327 C27.800293,53.2612305 28.3188476,53.0634765 28.8491211,53.0634765 C29.428711,53.0634765 30.0229492,53.2998047 30.491211,53.7680664 C31.3666992,54.6435547 31.3666992,56.0683594 30.491211,56.9438476 L29.116211,58.3686524 C28.2397461,59.230957 26.824707,59.2265625 25.9536133,58.3554687 Z" id="Shape"></path>
                        </g>
                    </g>
                </g>
            </g>
        </g>
    </g>
</svg>